<?xml version="1.0" encoding="UTF-8"?>
<svg width="132px" height="24px" viewBox="0 0 132 24" version="1.1" xmlns="http://www.w3.org/2000/svg" xmlns:xlink="http://www.w3.org/1999/xlink">
    <defs></defs>
    <g id="Site-design" stroke="none" stroke-width="1" fill="none" fill-rule="evenodd">
        <g id="All-Posts-Page" transform="translate(-70.000000, -41.000000)">
            <g id="Logo" transform="translate(70.000000, 41.000000)">
                <path d="M13.272,17.016 C13.272,18.1840058 13.1040017,19.1999957 12.768,20.064 C12.4319983,20.9280043 11.960003,21.6439972 11.352,22.212 C10.743997,22.7800028 10.0040044,23.2039986 9.132,23.484 C8.25999564,23.7640014 7.29600528,23.904 6.24,23.904 C5.18399472,23.904 4.10000556,23.7440016 2.988,23.424 C1.87599444,23.1039984 0.91200408,22.640003 0.096,22.032 L2.064,19.224 C2.64000288,19.7360026 3.27599652,20.1159988 3.972,20.364 C4.66800348,20.6120012 5.35199664,20.736 6.024,20.736 C7.17600576,20.736 8.02799724,20.432003 8.58,19.824 C9.13200276,19.215997 9.408,18.408005 9.408,17.4 L9.408,16.68 L9.336,16.68 C8.96799816,17.1600024 8.47200312,17.5439986 7.848,17.832 C7.22399688,18.1200014 6.512004,18.264 5.712,18.264 C4.79999544,18.264 3.99200352,18.1000016 3.288,17.772 C2.58399648,17.4439984 1.98800244,17.0000028 1.5,16.44 C1.01199756,15.8799972 0.64000128,15.2280037 0.384,14.484 C0.12799872,13.7399963 0,12.9520042 0,12.12 C0,11.2879958 0.12799872,10.4960038 0.384,9.744 C0.64000128,8.99199624 1.01199756,8.32800288 1.5,7.752 C1.98800244,7.17599712 2.58399648,6.71600172 3.288,6.372 C3.99200352,6.02799828 4.79199552,5.856 5.688,5.856 C6.44000376,5.856 7.15999656,6.00799848 7.848,6.312 C8.53600344,6.61600152 9.08799792,7.0879968 9.504,7.728 L9.552,7.728 L9.552,6.192 L13.272,6.192 L13.272,17.016 Z M9.528,12.096 C9.528,11.695998 9.46000068,11.3120018 9.324,10.944 C9.18799932,10.5759982 8.99200128,10.2520014 8.736,9.972 C8.47999872,9.6919986 8.17600176,9.4720008 7.824,9.312 C7.47199824,9.1519992 7.07200224,9.072 6.624,9.072 C6.17599776,9.072 5.78000172,9.1519992 5.436,9.312 C5.09199828,9.4720008 4.8000012,9.68799864 4.56,9.96 C4.3199988,10.2320014 4.13600064,10.5519982 4.008,10.92 C3.87999936,11.2880018 3.816,11.6799979 3.816,12.096 C3.816,12.496002 3.87999936,12.8799982 4.008,13.248 C4.13600064,13.6160018 4.3199988,13.9399986 4.56,14.22 C4.8000012,14.5000014 5.09199828,14.7239992 5.436,14.892 C5.78000172,15.0600008 6.17599776,15.144 6.624,15.144 C7.07200224,15.144 7.4759982,15.0600008 7.836,14.892 C8.1960018,14.7239992 8.49999876,14.5040014 8.748,14.232 C8.99600124,13.9599986 9.18799932,13.6400018 9.324,13.272 C9.46000068,12.9039982 9.528,12.5120021 9.528,12.096 Z M24.144,9.408 C23.9679991,9.35999976 23.7960008,9.32800008 23.628,9.312 C23.4599992,9.29599992 23.2960008,9.288 23.136,9.288 C22.6079974,9.288 22.1640018,9.38399904 21.804,9.576 C21.4439982,9.76800096 21.1560011,9.99999864 20.94,10.272 C20.7239989,10.5440014 20.5680005,10.8399984 20.472,11.16 C20.3759995,11.4800016 20.328,11.7599988 20.328,12 L20.328,18.144 L16.392,18.144 L16.392,6.192 L20.184,6.192 L20.184,7.92 L20.232,7.92 C20.5360015,7.31199696 20.9679972,6.81600192 21.528,6.432 C22.0880028,6.04799808 22.7359963,5.856 23.472,5.856 C23.6320008,5.856 23.7879992,5.86399992 23.94,5.88 C24.0920008,5.89600008 24.2159995,5.91999984 24.312,5.952 L24.144,9.408 Z M33.696,10.8 C33.696,10.1759969 33.500002,9.64000224 33.108,9.192 C32.715998,8.74399776 32.1280039,8.52 31.344,8.52 C30.9599981,8.52 30.6080016,8.5799994 30.288,8.7 C29.9679984,8.8200006 29.6880012,8.98399896 29.448,9.192 C29.2079988,9.40000104 29.0160007,9.6439986 28.872,9.924 C28.7279993,10.2040014 28.6480001,10.4959985 28.632,10.8 L33.696,10.8 Z M37.32,12.312 L37.32,12.792 C37.32,12.9520008 37.3120001,13.1039993 37.296,13.248 L28.632,13.248 C28.6640002,13.5840017 28.7639992,13.8879986 28.932,14.16 C29.1000008,14.4320014 29.3159987,14.667999 29.58,14.868 C29.8440013,15.068001 30.1399984,15.2239994 30.468,15.336 C30.7960016,15.4480006 31.1359982,15.504 31.488,15.504 C32.1120031,15.504 32.6399978,15.3880012 33.072,15.156 C33.5040022,14.9239988 33.8559986,14.6240018 34.128,14.256 L36.864,15.984 C36.3039972,16.8000041 35.5640046,17.4279978 34.644,17.868 C33.7239954,18.3080022 32.6560061,18.528 31.44,18.528 C30.5439955,18.528 29.696004,18.3880014 28.896,18.108 C28.095996,17.8279986 27.396003,17.4200027 26.796,16.884 C26.195997,16.3479973 25.7240017,15.6880039 25.38,14.904 C25.0359983,14.1199961 24.864,13.224005 24.864,12.216 C24.864,11.2399951 25.0319983,10.356004 25.368,9.564 C25.7040017,8.77199604 26.1599971,8.10000276 26.736,7.548 C27.3120029,6.99599724 27.9919961,6.56800152 28.776,6.264 C29.5600039,5.95999848 30.4079954,5.808 31.32,5.808 C32.2000044,5.808 33.0079963,5.95599852 33.744,6.252 C34.4800037,6.54800148 35.1119974,6.9759972 35.64,7.536 C36.1680026,8.0960028 36.5799985,8.775996 36.876,9.576 C37.1720015,10.376004 37.32,11.2879949 37.32,12.312 Z M48,10.8 C48,10.1759969 47.804002,9.64000224 47.412,9.192 C47.019998,8.74399776 46.4320039,8.52 45.648,8.52 C45.2639981,8.52 44.9120016,8.5799994 44.592,8.7 C44.2719984,8.8200006 43.9920012,8.98399896 43.752,9.192 C43.5119988,9.40000104 43.3200007,9.6439986 43.176,9.924 C43.0319993,10.2040014 42.9520001,10.4959985 42.936,10.8 L48,10.8 Z M51.624,12.312 L51.624,12.792 C51.624,12.9520008 51.6160001,13.1039993 51.6,13.248 L42.936,13.248 C42.9680002,13.5840017 43.0679992,13.8879986 43.236,14.16 C43.4040008,14.4320014 43.6199987,14.667999 43.884,14.868 C44.1480013,15.068001 44.4439984,15.2239994 44.772,15.336 C45.1000016,15.4480006 45.4399982,15.504 45.792,15.504 C46.4160031,15.504 46.9439978,15.3880012 47.376,15.156 C47.8080022,14.9239988 48.1599986,14.6240018 48.432,14.256 L51.168,15.984 C50.6079972,16.8000041 49.8680046,17.4279978 48.948,17.868 C48.0279954,18.3080022 46.9600061,18.528 45.744,18.528 C44.8479955,18.528 44.000004,18.3880014 43.2,18.108 C42.399996,17.8279986 41.700003,17.4200027 41.1,16.884 C40.499997,16.3479973 40.0280017,15.6880039 39.684,14.904 C39.3399983,14.1199961 39.168,13.224005 39.168,12.216 C39.168,11.2399951 39.3359983,10.356004 39.672,9.564 C40.0080017,8.77199604 40.4639971,8.10000276 41.04,7.548 C41.6160029,6.99599724 42.2959961,6.56800152 43.08,6.264 C43.8640039,5.95999848 44.7119954,5.808 45.624,5.808 C46.5040044,5.808 47.3119963,5.95599852 48.048,6.252 C48.7840037,6.54800148 49.4159974,6.9759972 49.944,7.536 C50.4720026,8.0960028 50.8839985,8.775996 51.18,9.576 C51.4760015,10.376004 51.624,11.2879949 51.624,12.312 Z M63.12,18.144 L63.12,16.584 L63.072,16.584 C62.6879981,17.192003 62.1400036,17.6599984 61.428,17.988 C60.7159964,18.3160016 59.960004,18.48 59.16,18.48 C58.2639955,18.48 57.4640035,18.3040018 56.76,17.952 C56.0559965,17.5999982 55.4600024,17.1320029 54.972,16.548 C54.4839976,15.9639971 54.1120013,15.2880038 53.856,14.52 C53.5999987,13.7519962 53.472,12.9520042 53.472,12.12 C53.472,11.2879958 53.6039987,10.4920038 53.868,9.732 C54.1320013,8.9719962 54.5079976,8.30400288 54.996,7.728 C55.4840024,7.15199712 56.0759965,6.69600168 56.772,6.36 C57.4680035,6.02399832 58.2479957,5.856 59.112,5.856 C59.9920044,5.856 60.735997,6.02399832 61.344,6.36 C61.952003,6.69600168 62.4239983,7.063998 62.76,7.464 L62.808,7.464 L62.808,0 L66.744,0 L66.744,18.144 L63.12,18.144 Z M62.976,12.144 C62.976,11.7599981 62.9080007,11.3840018 62.772,11.016 C62.6359993,10.6479982 62.4440012,10.3200014 62.196,10.032 C61.9479988,9.74399856 61.6480018,9.51200088 61.296,9.336 C60.9439982,9.15999912 60.5440022,9.072 60.096,9.072 C59.6319977,9.072 59.2240018,9.15999912 58.872,9.336 C58.5199982,9.51200088 58.2240012,9.7399986 57.984,10.02 C57.7439988,10.3000014 57.5640006,10.6239982 57.444,10.992 C57.3239994,11.3600018 57.264,11.7359981 57.264,12.12 C57.264,12.5040019 57.3239994,12.8839981 57.444,13.26 C57.5640006,13.6360019 57.7439988,13.9679986 57.984,14.256 C58.2240012,14.5440014 58.5199982,14.7759991 58.872,14.952 C59.2240018,15.1280009 59.6319977,15.216 60.096,15.216 C60.5440022,15.216 60.9439982,15.1280009 61.296,14.952 C61.6480018,14.7759991 61.9479988,14.5440014 62.196,14.256 C62.4440012,13.9679986 62.6359993,13.6400018 62.772,13.272 C62.9080007,12.9039982 62.976,12.5280019 62.976,12.144 Z M76.608,19.944 C76.3679988,20.5680031 76.1000015,21.1239976 75.804,21.612 C75.5079985,22.1000024 75.156002,22.5159983 74.748,22.86 C74.339998,23.2040017 73.8600028,23.4639991 73.308,23.64 C72.7559972,23.8160009 72.1040038,23.904 71.352,23.904 C70.9839982,23.904 70.604002,23.8800002 70.212,23.832 C69.819998,23.7839998 69.4800014,23.7200004 69.192,23.64 L69.624,20.328 C69.816001,20.3920003 70.0279988,20.4439998 70.26,20.484 C70.4920012,20.5240002 70.703999,20.544 70.896,20.544 C71.504003,20.544 71.9439986,20.4040014 72.216,20.124 C72.4880014,19.8439986 72.719999,19.4480026 72.912,18.936 L73.296,17.952 L68.304,6.192 L72.672,6.192 L75.336,13.872 L75.408,13.872 L77.784,6.192 L81.96,6.192 L76.608,19.944 Z M96.792,12.12 C96.792,12.9520042 96.6640013,13.7519962 96.408,14.52 C96.1519987,15.2880038 95.7800024,15.9639971 95.292,16.548 C94.8039976,17.1320029 94.2080035,17.5999982 93.504,17.952 C92.7999965,18.3040018 92.0000045,18.48 91.104,18.48 C90.303996,18.48 89.5480036,18.3160016 88.836,17.988 C88.1239964,17.6599984 87.5760019,17.192003 87.192,16.584 L87.144,16.584 L87.144,18.144 L83.52,18.144 L83.52,0 L87.456,0 L87.456,7.464 L87.504,7.464 C87.8400017,7.063998 88.311997,6.69600168 88.92,6.36 C89.528003,6.02399832 90.2719956,5.856 91.152,5.856 C92.0160043,5.856 92.7959965,6.02399832 93.492,6.36 C94.1880035,6.69600168 94.7799976,7.15199712 95.268,7.728 C95.7560024,8.30400288 96.1319987,8.9719962 96.396,9.732 C96.6600013,10.4920038 96.792,11.2879958 96.792,12.12 Z M93,12.12 C93,11.7359981 92.9400006,11.3600018 92.82,10.992 C92.6999994,10.6239982 92.5200012,10.3000014 92.28,10.02 C92.0399988,9.7399986 91.7440018,9.51200088 91.392,9.336 C91.0399982,9.15999912 90.6320023,9.072 90.168,9.072 C89.7199978,9.072 89.3200018,9.15999912 88.968,9.336 C88.6159982,9.51200088 88.3160012,9.74399856 88.068,10.032 C87.8199988,10.3200014 87.6280007,10.6479982 87.492,11.016 C87.3559993,11.3840018 87.288,11.7599981 87.288,12.144 C87.288,12.5280019 87.3559993,12.9039982 87.492,13.272 C87.6280007,13.6400018 87.8199988,13.9679986 88.068,14.256 C88.3160012,14.5440014 88.6159982,14.7759991 88.968,14.952 C89.3200018,15.1280009 89.7199978,15.216 90.168,15.216 C90.6320023,15.216 91.0399982,15.1280009 91.392,14.952 C91.7440018,14.7759991 92.0399988,14.5440014 92.28,14.256 C92.5200012,13.9679986 92.6999994,13.6360019 92.82,13.26 C92.9400006,12.8839981 93,12.5040019 93,12.12 Z M111.96,12.12 C111.96,13.0960049 111.784002,13.979996 111.432,14.772 C111.079998,15.564004 110.600003,16.2359972 109.992,16.788 C109.383997,17.3400028 108.680004,17.7679985 107.88,18.072 C107.079996,18.3760015 106.224005,18.528 105.312,18.528 C104.415996,18.528 103.564004,18.3760015 102.756,18.072 C101.947996,17.7679985 101.244003,17.3400028 100.644,16.788 C100.043997,16.2359972 99.5680018,15.564004 99.216,14.772 C98.8639982,13.979996 98.688,13.0960049 98.688,12.12 C98.688,11.1439951 98.8639982,10.2640039 99.216,9.48 C99.5680018,8.69599608 100.043997,8.03200272 100.644,7.488 C101.244003,6.94399728 101.947996,6.52800144 102.756,6.24 C103.564004,5.95199856 104.415996,5.808 105.312,5.808 C106.224005,5.808 107.079996,5.95199856 107.88,6.24 C108.680004,6.52800144 109.383997,6.94399728 109.992,7.488 C110.600003,8.03200272 111.079998,8.69599608 111.432,9.48 C111.784002,10.2640039 111.96,11.1439951 111.96,12.12 Z M108.168,12.12 C108.168,11.7359981 108.104001,11.3600018 107.976,10.992 C107.847999,10.6239982 107.664001,10.3000014 107.424,10.02 C107.183999,9.7399986 106.888002,9.51200088 106.536,9.336 C106.183998,9.15999912 105.776002,9.072 105.312,9.072 C104.847998,9.072 104.440002,9.15999912 104.088,9.336 C103.735998,9.51200088 103.444001,9.7399986 103.212,10.02 C102.979999,10.3000014 102.804001,10.6239982 102.684,10.992 C102.563999,11.3600018 102.504,11.7359981 102.504,12.12 C102.504,12.5040019 102.563999,12.8799982 102.684,13.248 C102.804001,13.6160018 102.983999,13.9479985 103.224,14.244 C103.464001,14.5400015 103.759998,14.7759991 104.112,14.952 C104.464002,15.1280009 104.871998,15.216 105.336,15.216 C105.800002,15.216 106.207998,15.1280009 106.56,14.952 C106.912002,14.7759991 107.207999,14.5400015 107.448,14.244 C107.688001,13.9479985 107.867999,13.6160018 107.988,13.248 C108.108001,12.8799982 108.168,12.5040019 108.168,12.12 Z M121.2,19.944 C120.959999,20.5680031 120.692001,21.1239976 120.396,21.612 C120.099999,22.1000024 119.748002,22.5159983 119.34,22.86 C118.931998,23.2040017 118.452003,23.4639991 117.9,23.64 C117.347997,23.8160009 116.696004,23.904 115.944,23.904 C115.575998,23.904 115.196002,23.8800002 114.804,23.832 C114.411998,23.7839998 114.072001,23.7200004 113.784,23.64 L114.216,20.328 C114.408001,20.3920003 114.619999,20.4439998 114.852,20.484 C115.084001,20.5240002 115.295999,20.544 115.488,20.544 C116.096003,20.544 116.535999,20.4040014 116.808,20.124 C117.080001,19.8439986 117.311999,19.4480026 117.504,18.936 L117.888,17.952 L112.896,6.192 L117.264,6.192 L119.928,13.872 L120,13.872 L122.376,6.192 L126.552,6.192 L121.2,19.944 Z" id="greedyboy." fill="#1A1A1A"></path>
                <path d="M131.688,16.032 C131.688,16.7040034 131.452002,17.2639978 130.98,17.712 C130.507998,18.1600022 129.944003,18.384 129.288,18.384 C128.951998,18.384 128.636001,18.3240006 128.34,18.204 C128.043999,18.0839994 127.784001,17.920001 127.56,17.712 C127.335999,17.503999 127.160001,17.2600014 127.032,16.98 C126.903999,16.6999986 126.84,16.3920017 126.84,16.056 C126.84,15.7359984 126.903999,15.4320014 127.032,15.144 C127.160001,14.8559986 127.335999,14.6040011 127.56,14.388 C127.784001,14.1719989 128.043999,14.0000006 128.34,13.872 C128.636001,13.7439994 128.951998,13.68 129.288,13.68 C129.944003,13.68 130.507998,13.9039978 130.98,14.352 C131.452002,14.8000022 131.688,15.3599966 131.688,16.032 Z" id="Path" fill="#935FA1"></path>
            </g>
        </g>
    </g>
</svg>